<?xml version="1.0" encoding="utf-8"?>
<!-- Generator: Adobe Illustrator 22.0.0, SVG Export Plug-In . SVG Version: 6.00 Build 0)  -->
<svg version="1.1" id="Layer_1" xmlns="http://www.w3.org/2000/svg" xmlns:xlink="http://www.w3.org/1999/xlink" x="0px" y="0px"
	 viewBox="0 0 358 378.3" style="enable-background:new 0 0 358 378.3;" xml:space="preserve">
<style type="text/css">
	.st0{fill:#EC008C;}
	.st1{fill:#3EC7F4;}
	.st2{fill:#FBB040;}
	.st3{fill:#FFF200;}
	.st4{fill:#ED1C24;}
	.st5{fill:#D7DF23;}
	.st6{fill:#92278F;}
	.Round_x0020_Corners_x0020_2_x0020_pt{fill:#FFFFFF;stroke:#000000;stroke-miterlimit:10;}
	.Live_x0020_Reflect_x0020_X{fill:none;}
	.Bevel_x0020_Soft{fill:url(#SVGID_1_);}
	.Dusk{fill:#FFFFFF;}
	.Pompadour_GS{fill-rule:evenodd;clip-rule:evenodd;fill:#44ADE2;}
	.st7{opacity:0.3;}
	.st8{opacity:1.000000e-02;}
	.st9{opacity:2.000000e-02;}
	.st10{opacity:3.000000e-02;}
	.st11{fill:url(#SVGID_2_);}
	.st12{fill:url(#SVGID_3_);}
	.st13{fill:url(#SVGID_4_);}
	.st14{fill:url(#SVGID_5_);}
	.st15{fill:url(#SVGID_6_);}
	.st16{fill:url(#SVGID_7_);}
	.st17{fill:url(#SVGID_8_);}
	.st18{fill:url(#SVGID_9_);}
	.st19{fill:url(#SVGID_10_);}
	.st20{fill:url(#SVGID_11_);}
	.st21{fill:url(#SVGID_12_);}
	.st22{filter:url(#Adobe_OpacityMaskFilter);}
	.st23{filter:url(#Adobe_OpacityMaskFilter_1_);}
	.st24{mask:url(#SVGID_13_);fill:url(#SVGID_14_);}
	.st25{fill:url(#SVGID_15_);}
	.st26{filter:url(#Adobe_OpacityMaskFilter_2_);}
	.st27{filter:url(#Adobe_OpacityMaskFilter_3_);}
	.st28{mask:url(#SVGID_16_);fill:url(#SVGID_17_);}
	.st29{fill:url(#SVGID_18_);}
	.st30{filter:url(#Adobe_OpacityMaskFilter_4_);}
	.st31{filter:url(#Adobe_OpacityMaskFilter_5_);}
	.st32{mask:url(#SVGID_19_);fill:url(#SVGID_20_);}
	.st33{fill:url(#SVGID_21_);}
	.st34{fill:url(#SVGID_22_);}
	.st35{fill:url(#SVGID_23_);}
	.st36{fill:url(#SVGID_24_);}
	.st37{fill:#58595B;}
	.st38{fill:url(#SVGID_25_);}
	.st39{fill:url(#SVGID_26_);}
	.st40{fill:url(#SVGID_27_);}
	.st41{fill:url(#SVGID_28_);}
	.st42{fill:url(#SVGID_29_);}
	.st43{fill:url(#SVGID_30_);}
	.st44{fill:url(#SVGID_31_);}
	.st45{fill:url(#SVGID_32_);}
	.st46{fill:url(#SVGID_33_);}
	.st47{fill:url(#SVGID_34_);}
	.st48{fill:url(#SVGID_35_);}
	.st49{fill:url(#SVGID_36_);}
	.st50{fill:url(#SVGID_37_);}
	.st51{fill:url(#SVGID_38_);}
	.st52{fill:url(#SVGID_39_);}
	.st53{fill:url(#SVGID_40_);}
	.st54{fill:url(#SVGID_41_);}
	.st55{fill:url(#SVGID_42_);}
	.st56{fill:url(#SVGID_43_);}
	.st57{fill:url(#SVGID_44_);}
	.st58{fill:url(#SVGID_45_);}
	.st59{fill:url(#SVGID_46_);}
	.st60{filter:url(#Adobe_OpacityMaskFilter_6_);}
	.st61{filter:url(#Adobe_OpacityMaskFilter_7_);}
	.st62{mask:url(#SVGID_47_);fill:url(#SVGID_48_);}
	.st63{fill:url(#SVGID_49_);}
	.st64{filter:url(#Adobe_OpacityMaskFilter_8_);}
	.st65{filter:url(#Adobe_OpacityMaskFilter_9_);}
	.st66{mask:url(#SVGID_50_);fill:url(#SVGID_51_);}
	.st67{fill:url(#SVGID_52_);}
</style>
<symbol  id="Nuevo_s_x2019_mbolo_22" viewBox="-192.5 -78.1 385 156.1">
	<polygon class="st0" points="192.5,26.9 -192.5,67.4 -192.5,78.1 192.5,37.6 	"/>
	<polygon class="st1" points="192.5,9.4 -192.5,49.9 -192.5,60.6 192.5,20.1 	"/>
	<polygon class="st2" points="192.5,-8.1 -192.5,32.4 -192.5,43.1 192.5,2.6 	"/>
	<polygon class="st3" points="192.5,-25.6 -192.5,14.9 -192.5,25.6 192.5,-14.9 	"/>
	<polygon class="st4" points="192.5,-43.1 -192.5,-2.6 -192.5,8.1 192.5,-32.4 	"/>
	<polygon class="st5" points="192.5,-60.6 -192.5,-20.1 -192.5,-9.4 192.5,-49.9 	"/>
	<polygon class="st6" points="192.5,-78.1 -192.5,-37.6 -192.5,-26.9 192.5,-67.4 	"/>
</symbol>
<linearGradient id="SVGID_1_" gradientUnits="userSpaceOnUse" x1="-2175" y1="-2859" x2="-2174.293" y2="-2858.293">
	<stop  offset="0" style="stop-color:#DEDFE3"/>
	<stop  offset="0.1738" style="stop-color:#D8D9DD"/>
	<stop  offset="0.352" style="stop-color:#C9CACD"/>
	<stop  offset="0.5323" style="stop-color:#B4B5B8"/>
	<stop  offset="0.7139" style="stop-color:#989A9C"/>
	<stop  offset="0.8949" style="stop-color:#797C7E"/>
	<stop  offset="1" style="stop-color:#656B6C"/>
</linearGradient>
<g class="st7">
	<path class="st8" d="M308.6,323.9c0,5.3-55.4,9.6-123.7,9.6c-68.3,0-123.7-4.3-123.7-9.6c0-5.3,55.4-9.6,123.7-9.6
		C253.3,314.3,308.6,318.6,308.6,323.9z"/>
	<path class="st9" d="M303.7,323.9c0,5.1-53.2,9.2-118.7,9.2c-65.6,0-118.7-4.1-118.7-9.2c0-5.1,53.2-9.2,118.7-9.2
		C250.5,314.7,303.7,318.8,303.7,323.9z"/>
	<path class="st10" d="M298.6,323.9c0,4.9-50.9,8.8-113.7,8.8c-62.8,0-113.7-4-113.7-8.8c0-4.9,50.9-8.8,113.7-8.8
		C247.7,315.1,298.6,319.1,298.6,323.9z"/>
	<path class="st10" d="M295.1,323.9c0,4.7-49.3,8.6-110.2,8.6c-60.8,0-110.1-3.8-110.1-8.6c0-4.7,49.3-8.5,110.1-8.5
		C245.8,315.4,295.1,319.2,295.1,323.9z"/>
	<path class="st10" d="M289.7,323.9c0,4.5-46.9,8.1-104.8,8.1c-57.9,0-104.8-3.6-104.8-8.1c0-4.5,46.9-8.1,104.8-8.1
		C242.8,315.8,289.7,319.4,289.7,323.9z"/>
	<path class="st10" d="M286.2,323.9c0,4.3-45.3,7.9-101.3,7.9c-55.9,0-101.2-3.5-101.2-7.9c0-4.3,45.3-7.9,101.2-7.9
		C240.8,316.1,286.2,319.6,286.2,323.9z"/>
	<path class="st10" d="M280.8,324.1c0,4.2-44.1,7.7-98.6,7.7c-54.4,0-98.6-3.4-98.6-7.7c0-4.2,44.1-7.7,98.6-7.7
		C236.7,316.5,280.8,319.9,280.8,324.1z"/>
	<path class="st10" d="M273.7,324.1c0,3.9-40.9,7.1-91.5,7.1c-50.5,0-91.5-3.2-91.5-7.1c0-3.9,40.9-7.1,91.5-7.1
		C232.8,317,273.7,320.2,273.7,324.1z"/>
	<path class="st10" d="M268.4,324.1c0,3.7-38.6,6.7-86.1,6.7c-47.6,0-86.1-3-86.1-6.7c0-3.7,38.6-6.7,86.1-6.7
		C229.8,317.5,268.4,320.5,268.4,324.1z"/>
	<path class="st10" d="M264.8,324.1c0,3.5-37,6.4-82.5,6.4c-45.6,0-82.5-2.9-82.5-6.4c0-3.5,37-6.4,82.5-6.4
		C227.8,317.7,264.8,320.6,264.8,324.1z"/>
	<path class="st10" d="M261.2,324.1c0,3.4-35.4,6.1-79,6.1s-79-2.7-79-6.1c0-3.4,35.4-6.1,79-6.1S261.2,320.8,261.2,324.1z"/>
	<path class="st10" d="M257.4,324.1c0,3.2-33.6,5.8-75.1,5.8c-41.5,0-75.1-2.6-75.1-5.8c0-3.2,33.6-5.8,75.1-5.8
		C223.7,318.3,257.4,320.9,257.4,324.1z"/>
	<path class="st10" d="M250.2,324.1c0,2.9-30.4,5.3-68,5.3c-37.5,0-68-2.4-68-5.3c0-2.9,30.4-5.3,68-5.3
		C219.8,318.9,250.2,321.2,250.2,324.1z"/>
	<path class="st10" d="M259.5,323.9c0,3.2-33.4,5.8-74.6,5.8c-41.2,0-74.6-2.6-74.6-5.8c0-3.2,33.4-5.8,74.6-5.8
		C226.1,318.1,259.5,320.7,259.5,323.9z"/>
	<path class="st10" d="M257.2,323.9c0,3.1-32.3,5.6-72.2,5.6c-39.9,0-72.2-2.5-72.2-5.6c0-3.1,32.3-5.6,72.2-5.6
		C224.8,318.3,257.2,320.8,257.2,323.9z"/>
	<path class="st10" d="M253.7,323.9c0,3-30.8,5.3-68.7,5.3c-37.9,0-68.7-2.4-68.7-5.3c0-2.9,30.8-5.3,68.7-5.3
		C222.9,318.6,253.7,321,253.7,323.9z"/>
	<path class="st10" d="M251.3,323.9c0,2.9-29.7,5.2-66.4,5.2c-36.7,0-66.4-2.3-66.4-5.2c0-2.8,29.7-5.2,66.4-5.2
		C221.6,318.8,251.3,321.1,251.3,323.9z"/>
	<path class="st10" d="M247.8,324.1c0,2.8-28.9,5-64.6,5c-35.7,0-64.6-2.2-64.6-5c0-2.8,28.9-5,64.6-5
		C218.9,319.1,247.8,321.3,247.8,324.1z"/>
	<path class="st10" d="M243.2,324.1c0,2.6-26.9,4.7-60,4.7c-33.1,0-60-2.1-60-4.7c0-2.6,26.8-4.7,60-4.7
		C216.3,319.4,243.2,321.5,243.2,324.1z"/>
	<path class="st10" d="M239.6,324.1c0,2.4-25.3,4.4-56.5,4.4c-31.2,0-56.5-2-56.5-4.4c0-2.4,25.3-4.4,56.5-4.4
		C214.4,319.7,239.6,321.7,239.6,324.1z"/>
	<path class="st10" d="M237.3,324.1c0,2.3-24.2,4.2-54.1,4.2c-29.9,0-54.1-1.9-54.1-4.2c0-2.3,24.2-4.2,54.1-4.2
		C213.1,319.9,237.3,321.8,237.3,324.1z"/>
	<path class="st10" d="M235,324.1c0,2.2-23.2,4-51.8,4c-28.6,0-51.8-1.8-51.8-4c0-2.2,23.2-4,51.8-4
		C211.8,320.1,235,321.8,235,324.1z"/>
	<path class="st10" d="M232.4,324.1c0,2.1-22.1,3.8-49.3,3.8c-27.2,0-49.3-1.7-49.3-3.8c0-2.1,22.1-3.8,49.3-3.8
		C210.4,320.3,232.4,322,232.4,324.1z"/>
	<path class="st10" d="M227.8,324.1c0,1.9-20,3.5-44.6,3.5s-44.6-1.6-44.6-3.5c0-1.9,20-3.5,44.6-3.5S227.8,322.2,227.8,324.1z"/>
	<path class="st10" d="M235.6,323.9c0,2.2-22.7,3.9-50.6,3.9c-28,0-50.6-1.8-50.6-3.9c0-2.2,22.7-3.9,50.6-3.9
		C212.9,320,235.6,321.8,235.6,323.9z"/>
	<path class="st10" d="M234,323.9c0,2.1-22,3.8-49,3.8c-27.1,0-49-1.7-49-3.8c0-2.1,22-3.8,49-3.8C212,320.1,234,321.8,234,323.9z"
		/>
	<path class="st10" d="M231.6,323.9c0,2-20.9,3.6-46.7,3.6c-25.8,0-46.7-1.6-46.7-3.6c0-2,20.9-3.6,46.7-3.6
		C210.7,320.3,231.6,321.9,231.6,323.9z"/>
	<path class="st10" d="M230,323.9c0,1.9-20.2,3.5-45.1,3.5c-24.9,0-45.1-1.6-45.1-3.5c0-1.9,20.2-3.5,45.1-3.5
		C209.8,320.4,230,322,230,323.9z"/>
	<path class="st10" d="M227.6,324c0,1.9-19.7,3.4-43.9,3.4c-24.2,0-43.9-1.5-43.9-3.4c0-1.9,19.6-3.4,43.9-3.4
		C208,320.6,227.6,322.1,227.6,324z"/>
	<path class="st10" d="M224.4,324c0,1.7-18.2,3.2-40.7,3.2c-22.5,0-40.7-1.4-40.7-3.2c0-1.7,18.2-3.2,40.7-3.2
		C206.2,320.9,224.4,322.3,224.4,324z"/>
	<path class="st10" d="M222.1,324c0,1.6-17.2,3-38.3,3c-21.2,0-38.3-1.3-38.3-3c0-1.6,17.2-3,38.3-3
		C204.9,321,222.1,322.4,222.1,324z"/>
	<path class="st10" d="M220.5,324c0,1.6-16.4,2.9-36.7,2.9c-20.3,0-36.8-1.3-36.8-2.9c0-1.6,16.5-2.9,36.8-2.9
		C204,321.2,220.5,322.5,220.5,324z"/>
	<path class="st10" d="M218.9,324c0,1.5-15.7,2.7-35.2,2.7c-19.4,0-35.2-1.2-35.2-2.7c0-1.5,15.7-2.7,35.2-2.7
		C203.2,321.3,218.9,322.5,218.9,324z"/>
	<path class="st10" d="M217.2,324c0,1.4-15,2.6-33.4,2.6c-18.5,0-33.4-1.2-33.4-2.6c0-1.4,15-2.6,33.4-2.6
		C202.2,321.4,217.2,322.6,217.2,324z"/>
	<path class="st10" d="M214,324c0,1.3-13.6,2.4-30.3,2.4c-16.7,0-30.3-1.1-30.3-2.4c0-1.3,13.5-2.3,30.3-2.3
		C200.5,321.7,214,322.7,214,324z"/>
	<path class="st10" d="M218.1,323.9c0,1.4-14.9,2.6-33.2,2.6c-18.3,0-33.2-1.2-33.2-2.6c0-1.4,14.9-2.6,33.2-2.6
		C203.3,321.4,218.1,322.5,218.1,323.9z"/>
	<path class="st10" d="M217.1,323.9c0,1.4-14.4,2.5-32.2,2.5c-17.8,0-32.1-1.1-32.1-2.5c0-1.4,14.4-2.5,32.1-2.5
		C202.7,321.4,217.1,322.6,217.1,323.9z"/>
	<path class="st10" d="M215.5,323.9c0,1.3-13.7,2.4-30.6,2.4c-16.9,0-30.6-1.1-30.6-2.4c0-1.3,13.7-2.4,30.6-2.4
		C201.8,321.6,215.5,322.6,215.5,323.9z"/>
	<path class="st10" d="M214.5,323.9c0,1.3-13.2,2.3-29.6,2.3c-16.3,0-29.6-1-29.6-2.3c0-1.3,13.2-2.3,29.6-2.3
		C201.3,321.6,214.5,322.7,214.5,323.9z"/>
	<path class="st10" d="M212.9,324c0,1.2-12.9,2.2-28.8,2.2c-15.9,0-28.8-1-28.8-2.2c0-1.2,12.9-2.2,28.8-2.2
		C200,321.8,212.9,322.8,212.9,324z"/>
	<path class="st10" d="M210.8,324c0,1.1-11.9,2.1-26.7,2.1c-14.7,0-26.7-0.9-26.7-2.1c0-1.1,11.9-2.1,26.7-2.1
		C198.9,321.9,210.8,322.9,210.8,324z"/>
	<path class="st10" d="M209.3,324c0,1.1-11.3,2-25.1,2c-13.9,0-25.1-0.9-25.1-2c0-1.1,11.2-1.9,25.1-1.9
		C198,322.1,209.3,322.9,209.3,324z"/>
	<path class="st10" d="M208.3,324c0,1-10.8,1.9-24.1,1.9c-13.3,0-24.1-0.8-24.1-1.9s10.8-1.9,24.1-1.9
		C197.5,322.1,208.3,323,208.3,324z"/>
	<path class="st10" d="M207.2,324c0,1-10.3,1.8-23.1,1.8c-12.7,0-23.1-0.8-23.1-1.8s10.3-1.8,23.1-1.8
		C196.9,322.2,207.2,323,207.2,324z"/>
	<path class="st10" d="M206.1,324c0,0.9-9.8,1.7-21.9,1.7c-12.1,0-21.9-0.8-21.9-1.7c0-0.9,9.8-1.7,21.9-1.7
		C196.3,322.3,206.1,323.1,206.1,324z"/>
	<path class="st10" d="M204,324c0,0.9-8.9,1.5-19.9,1.5c-10.9,0-19.8-0.7-19.8-1.5c0-0.9,8.9-1.5,19.8-1.5
		C195.1,322.5,204,323.1,204,324z"/>
</g>
<g>
	<g>
		<linearGradient id="SVGID_2_" gradientUnits="userSpaceOnUse" x1="74.3926" y1="169.0068" x2="283.2383" y2="169.0068">
			<stop  offset="0" style="stop-color:#8D9615"/>
			<stop  offset="1.472069e-02" style="stop-color:#96A018"/>
			<stop  offset="5.015221e-02" style="stop-color:#AAB31C"/>
			<stop  offset="9.089878e-02" style="stop-color:#BAC31F"/>
			<stop  offset="0.1385" style="stop-color:#C6CF21"/>
			<stop  offset="0.1973" style="stop-color:#CED722"/>
			<stop  offset="0.2799" style="stop-color:#D4DD23"/>
			<stop  offset="0.5091" style="stop-color:#D7DF23"/>
			<stop  offset="0.7301" style="stop-color:#D4DD23"/>
			<stop  offset="0.8097" style="stop-color:#CED722"/>
			<stop  offset="0.8665" style="stop-color:#C6CF21"/>
			<stop  offset="0.9123" style="stop-color:#BAC31F"/>
			<stop  offset="0.9516" style="stop-color:#AAB31C"/>
			<stop  offset="0.9858" style="stop-color:#96A018"/>
			<stop  offset="1" style="stop-color:#8D9615"/>
		</linearGradient>
		<path class="st11" d="M283.2,169c0,57.7-46.8,104.4-104.4,104.4c-57.7,0-104.4-46.7-104.4-104.4c0-57.7,46.8-104.4,104.4-104.4
			C236.5,64.6,283.2,111.3,283.2,169z"/>
		<linearGradient id="SVGID_3_" gradientUnits="userSpaceOnUse" x1="236.4277" y1="268.7934" x2="121.2041" y2="69.2202">
			<stop  offset="0" style="stop-color:#6D6E71"/>
			<stop  offset="4.904021e-02" style="stop-color:#808285"/>
			<stop  offset="0.163" style="stop-color:#AAACAF"/>
			<stop  offset="0.2182" style="stop-color:#BCBEC0"/>
			<stop  offset="0.326" style="stop-color:#D2D3D5"/>
			<stop  offset="0.503" style="stop-color:#FFFFFF"/>
			<stop  offset="0.6787" style="stop-color:#CECFD1"/>
			<stop  offset="0.7636" style="stop-color:#BCBEC0"/>
			<stop  offset="1" style="stop-color:#6D6E71"/>
		</linearGradient>
		<path class="st12" d="M294,169c0,63.6-51.6,115.2-115.2,115.2c-63.6,0-115.2-51.6-115.2-115.2c0-63.6,51.6-115.2,115.2-115.2
			C242.4,53.8,294,105.4,294,169z"/>
		<linearGradient id="SVGID_4_" gradientUnits="userSpaceOnUse" x1="241.3253" y1="82.9705" x2="116.3071" y2="255.0433">
			<stop  offset="0" style="stop-color:#6D6E71"/>
			<stop  offset="4.904021e-02" style="stop-color:#808285"/>
			<stop  offset="0.163" style="stop-color:#AAACAF"/>
			<stop  offset="0.2182" style="stop-color:#BCBEC0"/>
			<stop  offset="0.326" style="stop-color:#D2D3D5"/>
			<stop  offset="0.503" style="stop-color:#FFFFFF"/>
			<stop  offset="0.6787" style="stop-color:#CECFD1"/>
			<stop  offset="0.7636" style="stop-color:#BCBEC0"/>
			<stop  offset="1" style="stop-color:#6D6E71"/>
		</linearGradient>
		<path class="st13" d="M285.2,169c0,58.7-47.6,106.3-106.3,106.3c-58.7,0-106.3-47.6-106.3-106.3c0-58.7,47.6-106.3,106.3-106.3
			C237.5,62.7,285.2,110.3,285.2,169z"/>
		<linearGradient id="SVGID_5_" gradientUnits="userSpaceOnUse" x1="178.8179" y1="264.4307" x2="178.8179" y2="73.5879">
			<stop  offset="0" style="stop-color:#007BC3"/>
			<stop  offset="2.200785e-02" style="stop-color:#0087CC"/>
			<stop  offset="5.693080e-02" style="stop-color:#0098D7"/>
			<stop  offset="9.708065e-02" style="stop-color:#00A7E1"/>
			<stop  offset="0.1439" style="stop-color:#00B3E9"/>
			<stop  offset="0.2019" style="stop-color:#1DBCEE"/>
			<stop  offset="0.2833" style="stop-color:#28C2F2"/>
			<stop  offset="0.5091" style="stop-color:#2AC5F4"/>
			<stop  offset="0.7269" style="stop-color:#28C2F2"/>
			<stop  offset="0.8053" style="stop-color:#1DBCEE"/>
			<stop  offset="0.8612" style="stop-color:#00B3E9"/>
			<stop  offset="0.9064" style="stop-color:#00A7E1"/>
			<stop  offset="0.9451" style="stop-color:#0098D7"/>
			<stop  offset="0.9788" style="stop-color:#0087CC"/>
			<stop  offset="1" style="stop-color:#007BC3"/>
		</linearGradient>
		<path class="st14" d="M274.2,169c0,52.7-42.7,95.4-95.4,95.4c-52.7,0-95.4-42.7-95.4-95.4c0-52.7,42.7-95.4,95.4-95.4
			C231.5,73.6,274.2,116.3,274.2,169z"/>
		<linearGradient id="SVGID_6_" gradientUnits="userSpaceOnUse" x1="178.8154" y1="200.9608" x2="178.8154" y2="82.543">
			<stop  offset="0" style="stop-color:#2AC5F4"/>
			<stop  offset="0.4076" style="stop-color:#30C5F4"/>
			<stop  offset="0.5544" style="stop-color:#41C7F4"/>
			<stop  offset="0.6591" style="stop-color:#57CBF5"/>
			<stop  offset="0.7437" style="stop-color:#70D0F6"/>
			<stop  offset="0.8162" style="stop-color:#8BD7F8"/>
			<stop  offset="0.8804" style="stop-color:#ABE1FA"/>
			<stop  offset="0.9384" style="stop-color:#CEEDFC"/>
			<stop  offset="0.99" style="stop-color:#F4FBFE"/>
			<stop  offset="1" style="stop-color:#FFFFFF"/>
		</linearGradient>
		<path class="st15" d="M265.3,169c0,47.8-38.7,27.8-86.5,27.8c-47.8,0-86.5,19.9-86.5-27.8c0-47.8,38.7-86.5,86.5-86.5
			C226.6,82.5,265.3,121.3,265.3,169z"/>
	</g>
</g>
<g>
	
		<radialGradient id="SVGID_7_" cx="178.8158" cy="-2838.8262" r="36.8988" gradientTransform="matrix(1 0 0 1.5811 0 4649.9624)" gradientUnits="userSpaceOnUse">
		<stop  offset="0" style="stop-color:#FFFFFF"/>
		<stop  offset="0.2165" style="stop-color:#FBFBFB"/>
		<stop  offset="0.362" style="stop-color:#F2F2F3"/>
		<stop  offset="0.4865" style="stop-color:#E5E6E7"/>
		<stop  offset="0.5994" style="stop-color:#D3D5D6"/>
		<stop  offset="0.7043" style="stop-color:#BCBEC0"/>
		<stop  offset="0.8033" style="stop-color:#A1A3A5"/>
		<stop  offset="0.8978" style="stop-color:#828486"/>
		<stop  offset="0.9865" style="stop-color:#5F6062"/>
		<stop  offset="1" style="stop-color:#58595B"/>
	</radialGradient>
	<path class="st16" d="M214.6,164.2l0.1-19.3c0,0,0.9-42.4-36.7-42.4c-36.9,0-35.6,42.4-35.6,42.4l0,19.3h11.4l0-19.3
		c0,0-0.1-29.5,24.3-29.5c24.4,0,24.3,29.5,24.3,29.5v19.3H214.6z"/>
	
		<linearGradient id="SVGID_8_" gradientUnits="userSpaceOnUse" x1="149.3282" y1="137.0688" x2="206.6218" y2="137.0688" gradientTransform="matrix(0.9997 0 0 1 0.2566 0)">
		<stop  offset="0" style="stop-color:#F1F2F2"/>
		<stop  offset="0.1081" style="stop-color:#E8E9E9"/>
		<stop  offset="0.2987" style="stop-color:#CFD1D2"/>
		<stop  offset="0.5494" style="stop-color:#A7AAAC"/>
		<stop  offset="0.8473" style="stop-color:#76777A"/>
		<stop  offset="1" style="stop-color:#58595B"/>
	</linearGradient>
	<path class="st17" d="M178.2,109.9c-28.8,0-28.7,32.9-28.7,32.9l0,21.4h4.2l0-19.3c0,0-0.1-29.5,24.3-29.5
		c24.4,0,24.2,29.5,24.2,29.5v19.3h4.6v-21.4C206.8,142.8,207,109.9,178.2,109.9z"/>
	<g>
		<linearGradient id="SVGID_9_" gradientUnits="userSpaceOnUse" x1="196.5448" y1="245.7125" x2="167.6368" y2="144.8983">
			<stop  offset="0" style="stop-color:#000000"/>
			<stop  offset="0.4424" style="stop-color:#FFFFFF"/>
			<stop  offset="0.4918" style="stop-color:#F6F7F7"/>
			<stop  offset="0.5631" style="stop-color:#E6E7E8"/>
			<stop  offset="0.6478" style="stop-color:#CCCDCF"/>
			<stop  offset="0.7428" style="stop-color:#A7AAAC"/>
			<stop  offset="0.8463" style="stop-color:#7D7F81"/>
			<stop  offset="0.9553" style="stop-color:#454546"/>
			<stop  offset="1" style="stop-color:#000000"/>
		</linearGradient>
		<path class="st18" d="M131.7,156.2c0,0,41.4-20.8,92.9,0c0,0,19.7,66.6-47.4,95.1C177.1,251.3,109.9,223.3,131.7,156.2z"/>
		<linearGradient id="SVGID_10_" gradientUnits="userSpaceOnUse" x1="128.785" y1="199.1307" x2="225.8364" y2="199.1307">
			<stop  offset="0" style="stop-color:#000000"/>
			<stop  offset="0.297" style="stop-color:#FFFFFF"/>
			<stop  offset="0.346" style="stop-color:#F6F7F7"/>
			<stop  offset="0.4169" style="stop-color:#E6E7E8"/>
			<stop  offset="0.501" style="stop-color:#CCCDCF"/>
			<stop  offset="0.5953" style="stop-color:#A8AAAC"/>
			<stop  offset="0.6968" style="stop-color:#7E7F82"/>
			<stop  offset="0.7333" style="stop-color:#6D6E71"/>
			<stop  offset="0.7862" style="stop-color:#68696B"/>
			<stop  offset="0.8626" style="stop-color:#58585B"/>
			<stop  offset="0.9528" style="stop-color:#363637"/>
			<stop  offset="1" style="stop-color:#000000"/>
		</linearGradient>
		<path class="st19" d="M132.9,157.1c0,0,40.9-19.8,89.9,0c0,0,20.6,66-46.6,92.9C176.3,250,112.1,221,132.9,157.1z"/>
		<linearGradient id="SVGID_11_" gradientUnits="userSpaceOnUse" x1="136.5926" y1="198.9736" x2="217.185" y2="198.9736">
			<stop  offset="0" style="stop-color:#000000"/>
			<stop  offset="8.673475e-02" style="stop-color:#616265"/>
			<stop  offset="0.1915" style="stop-color:#95979A"/>
			<stop  offset="0.2863" style="stop-color:#C0C2C4"/>
			<stop  offset="0.3677" style="stop-color:#E0E1E3"/>
			<stop  offset="0.4326" style="stop-color:#F5F5F5"/>
			<stop  offset="0.4727" style="stop-color:#FFFFFF"/>
			<stop  offset="0.5194" style="stop-color:#F6F7F7"/>
			<stop  offset="0.5869" style="stop-color:#E6E7E8"/>
			<stop  offset="0.667" style="stop-color:#CCCDCF"/>
			<stop  offset="0.7568" style="stop-color:#A7AAAC"/>
			<stop  offset="0.8546" style="stop-color:#7D7F81"/>
			<stop  offset="0.9578" style="stop-color:#454546"/>
			<stop  offset="1" style="stop-color:#000000"/>
		</linearGradient>
		<path class="st20" d="M140.1,161.8c0,0,33.4-16.8,74.9,0c0,0,15.9,58.9-38.2,81.9C176.8,243.6,122.5,215.9,140.1,161.8z"/>
		
			<radialGradient id="SVGID_12_" cx="156.5258" cy="-330.3911" r="46.2546" gradientTransform="matrix(1.3331 0 0 1.069 -31.371 552.138)" gradientUnits="userSpaceOnUse">
			<stop  offset="0" style="stop-color:#BCBEC0"/>
			<stop  offset="0.1151" style="stop-color:#B7B9BB"/>
			<stop  offset="0.2733" style="stop-color:#A8AAAD"/>
			<stop  offset="0.4566" style="stop-color:#929496"/>
			<stop  offset="0.6587" style="stop-color:#747578"/>
			<stop  offset="0.8737" style="stop-color:#49494A"/>
			<stop  offset="1" style="stop-color:#000000"/>
		</radialGradient>
		<path class="st21" d="M141.9,162.8c0,0,32.5-16,72.2,0c0,0,14.7,57.4-37.1,79.4C177,242.2,125.1,214.5,141.9,162.8z"/>
		<defs>
			<filter id="Adobe_OpacityMaskFilter" filterUnits="userSpaceOnUse" x="138.6" y="155.7" width="77.4" height="51.3">
				<feFlood  style="flood-color:white;flood-opacity:1" result="back"/>
				<feBlend  in="SourceGraphic" in2="back" mode="normal"/>
			</filter>
		</defs>
		<mask maskUnits="userSpaceOnUse" x="138.6" y="155.7" width="77.4" height="51.3" id="SVGID_13_">
			<g class="st22">
				<defs>
					<filter id="Adobe_OpacityMaskFilter_1_" filterUnits="userSpaceOnUse" x="138.6" y="155.7" width="77.4" height="51.3">
						<feFlood  style="flood-color:white;flood-opacity:1" result="back"/>
						<feBlend  in="SourceGraphic" in2="back" mode="normal"/>
					</filter>
				</defs>
				<mask maskUnits="userSpaceOnUse" x="138.6" y="155.7" width="77.4" height="51.3" id="SVGID_13_">
					<g class="st23">
					</g>
				</mask>
				<linearGradient id="SVGID_14_" gradientUnits="userSpaceOnUse" x1="183.3846" y1="195.3674" x2="165.3409" y2="152.859">
					<stop  offset="0" style="stop-color:#000000"/>
					<stop  offset="9.696141e-02" style="stop-color:#101010"/>
					<stop  offset="0.2867" style="stop-color:#3A3A3A"/>
					<stop  offset="0.5505" style="stop-color:#7E7E7E"/>
					<stop  offset="0.8751" style="stop-color:#DADADA"/>
					<stop  offset="1" style="stop-color:#FFFFFF"/>
				</linearGradient>
				<path class="st24" d="M189.9,175.5c9.7,0,18.7,2.2,26.1,6.1c0.1-10.9-1.9-18.7-1.9-18.7c-39.7-16-72.2,0-72.2,0
					c-5.7,17.6-3.5,32.3,1.9,44.2C145.9,189.3,165.7,175.5,189.9,175.5z"/>
			</g>
		</mask>
		<linearGradient id="SVGID_15_" gradientUnits="userSpaceOnUse" x1="183.3846" y1="195.3674" x2="165.3409" y2="152.859">
			<stop  offset="0" style="stop-color:#FFFFFF"/>
			<stop  offset="1" style="stop-color:#FFFFFF"/>
		</linearGradient>
		<path class="st25" d="M189.9,175.5c9.7,0,18.7,2.2,26.1,6.1c0.1-10.9-1.9-18.7-1.9-18.7c-39.7-16-72.2,0-72.2,0
			c-5.7,17.6-3.5,32.3,1.9,44.2C145.9,189.3,165.7,175.5,189.9,175.5z"/>
		<defs>
			<filter id="Adobe_OpacityMaskFilter_2_" filterUnits="userSpaceOnUse" x="140.2" y="159.8" width="35.4" height="80.1">
				<feFlood  style="flood-color:white;flood-opacity:1" result="back"/>
				<feBlend  in="SourceGraphic" in2="back" mode="normal"/>
			</filter>
		</defs>
		<mask maskUnits="userSpaceOnUse" x="140.2" y="159.8" width="35.4" height="80.1" id="SVGID_16_">
			<g class="st26">
				<defs>
					<filter id="Adobe_OpacityMaskFilter_3_" filterUnits="userSpaceOnUse" x="140.2" y="159.8" width="35.4" height="80.1">
						<feFlood  style="flood-color:white;flood-opacity:1" result="back"/>
						<feBlend  in="SourceGraphic" in2="back" mode="normal"/>
					</filter>
				</defs>
				<mask maskUnits="userSpaceOnUse" x="140.2" y="159.8" width="35.4" height="80.1" id="SVGID_16_">
					<g class="st27">
					</g>
				</mask>
				<linearGradient id="SVGID_17_" gradientUnits="userSpaceOnUse" x1="176.383" y1="239.6466" x2="143.9003" y2="163.1222">
					<stop  offset="0" style="stop-color:#000000"/>
					<stop  offset="8.499976e-02" style="stop-color:#0A0A0A"/>
					<stop  offset="0.2274" style="stop-color:#242424"/>
					<stop  offset="0.4097" style="stop-color:#4E4E4E"/>
					<stop  offset="0.6248" style="stop-color:#888888"/>
					<stop  offset="0.8647" style="stop-color:#D2D2D2"/>
					<stop  offset="1" style="stop-color:#FFFFFF"/>
				</linearGradient>
				<path class="st28" d="M142.8,163.7c0,0-16.2,44.8,32.8,76.3c0,0-29.2-35.6-16.2-80.1C159.4,159.8,150.3,159.7,142.8,163.7z"/>
			</g>
		</mask>
		<linearGradient id="SVGID_18_" gradientUnits="userSpaceOnUse" x1="176.383" y1="239.6466" x2="143.9003" y2="163.1222">
			<stop  offset="0" style="stop-color:#FFFFFF"/>
			<stop  offset="1" style="stop-color:#FFFFFF"/>
		</linearGradient>
		<path class="st29" d="M142.8,163.7c0,0-16.2,44.8,32.8,76.3c0,0-29.2-35.6-16.2-80.1C159.4,159.8,150.3,159.7,142.8,163.7z"/>
		<defs>
			<filter id="Adobe_OpacityMaskFilter_4_" filterUnits="userSpaceOnUse" x="176.7" y="159.8" width="37.6" height="80.1">
				<feFlood  style="flood-color:white;flood-opacity:1" result="back"/>
				<feBlend  in="SourceGraphic" in2="back" mode="normal"/>
			</filter>
		</defs>
		<mask maskUnits="userSpaceOnUse" x="176.7" y="159.8" width="37.6" height="80.1" id="SVGID_19_">
			<g class="st30">
				<defs>
					<filter id="Adobe_OpacityMaskFilter_5_" filterUnits="userSpaceOnUse" x="176.7" y="159.8" width="37.6" height="80.1">
						<feFlood  style="flood-color:white;flood-opacity:1" result="back"/>
						<feBlend  in="SourceGraphic" in2="back" mode="normal"/>
					</filter>
				</defs>
				<mask maskUnits="userSpaceOnUse" x="176.7" y="159.8" width="37.6" height="80.1" id="SVGID_19_">
					<g class="st31">
					</g>
				</mask>
				
					<linearGradient id="SVGID_20_" gradientUnits="userSpaceOnUse" x1="215.8419" y1="239.3704" x2="183.558" y2="163.3144" gradientTransform="matrix(-1.1561 0 0 1 424.5534 0)">
					<stop  offset="0" style="stop-color:#000000"/>
					<stop  offset="8.499976e-02" style="stop-color:#0A0A0A"/>
					<stop  offset="0.2274" style="stop-color:#242424"/>
					<stop  offset="0.4097" style="stop-color:#4E4E4E"/>
					<stop  offset="0.6248" style="stop-color:#888888"/>
					<stop  offset="0.8647" style="stop-color:#D2D2D2"/>
					<stop  offset="1" style="stop-color:#FFFFFF"/>
				</linearGradient>
				<path class="st32" d="M212.7,163.5c0,0,13.2,54.5-36,76.4c0,0,33.7-35.6,18.8-80.1C195.4,159.8,204,159.6,212.7,163.5z"/>
			</g>
		</mask>
		
			<linearGradient id="SVGID_21_" gradientUnits="userSpaceOnUse" x1="215.8419" y1="239.3704" x2="183.558" y2="163.3144" gradientTransform="matrix(-1.1561 0 0 1 424.5534 0)">
			<stop  offset="0" style="stop-color:#FFFFFF"/>
			<stop  offset="1" style="stop-color:#FFFFFF"/>
		</linearGradient>
		<path class="st33" d="M212.7,163.5c0,0,13.2,54.5-36,76.4c0,0,33.7-35.6,18.8-80.1C195.4,159.8,204,159.6,212.7,163.5z"/>
		<g>
			
				<linearGradient id="SVGID_22_" gradientUnits="userSpaceOnUse" x1="-1322.4408" y1="-664.6003" x2="-1321.9795" y2="-664.6003" gradientTransform="matrix(-0.2257 -10.7047 10.7047 -0.2257 6952.6387 -14143.6074)">
				<stop  offset="0" style="stop-color:#000000"/>
				<stop  offset="0.2131" style="stop-color:#525355"/>
				<stop  offset="0.692" style="stop-color:#A9ABAD"/>
				<stop  offset="1" style="stop-color:#E6E7E8"/>
			</linearGradient>
			<path class="st34" d="M136.7,157.8c1.4,0,2.5,1.1,2.5,2.4c0,1.4-1,2.5-2.4,2.5c-1.4,0-2.5-1.1-2.5-2.4
				C134.2,159,135.3,157.8,136.7,157.8z"/>
			
				<linearGradient id="SVGID_23_" gradientUnits="userSpaceOnUse" x1="-1319.0458" y1="-665.4171" x2="-1318.5845" y2="-665.4171" gradientTransform="matrix(-0.1852 -8.7864 8.7864 -0.1852 5739.1108 -11550.6855)">
				<stop  offset="0" style="stop-color:#E6E7E8"/>
				<stop  offset="0.308" style="stop-color:#A9ABAD"/>
				<stop  offset="0.7869" style="stop-color:#525355"/>
				<stop  offset="1" style="stop-color:#000000"/>
			</linearGradient>
			<path class="st35" d="M136.7,158.2c1.1,0,2,0.9,2.1,2c0,1.1-0.9,2-2,2.1c-1.1,0-2-0.9-2.1-2C134.7,159.2,135.6,158.3,136.7,158.2
				z"/>
			
				<radialGradient id="SVGID_24_" cx="-1291.282" cy="-672.1201" r="0.4621" gradientTransform="matrix(-7.400000e-02 -3.5109 3.5109 -7.400000e-02 2400.9353 -4423.0161)" gradientUnits="userSpaceOnUse">
				<stop  offset="0" style="stop-color:#D1D3D4"/>
				<stop  offset="0.6496" style="stop-color:#8C8E91"/>
				<stop  offset="1" style="stop-color:#6D6F71"/>
			</radialGradient>
			<path class="st36" d="M136.7,158.7c0.9,0,1.6,0.7,1.7,1.6c0,0.9-0.7,1.6-1.6,1.7c-0.9,0-1.6-0.7-1.7-1.6
				C135.1,159.4,135.8,158.7,136.7,158.7z"/>
			<path class="st37" d="M137.9,160.1l0,0.3l-2.4,0.1l0-0.3L137.9,160.1z M136.8,159.1l-0.3,0l0,1l0.3,0L136.8,159.1z M136.8,160.4
				l-0.3,0l0,1l0.3,0L136.8,160.4z"/>
		</g>
		<g>
			
				<linearGradient id="SVGID_25_" gradientUnits="userSpaceOnUse" x1="-1322.604" y1="-656.8561" x2="-1322.1428" y2="-656.8561" gradientTransform="matrix(-0.2257 -10.7047 10.7047 -0.2257 6952.6387 -14143.6074)">
				<stop  offset="0" style="stop-color:#000000"/>
				<stop  offset="0.2131" style="stop-color:#525355"/>
				<stop  offset="0.692" style="stop-color:#A9ABAD"/>
				<stop  offset="1" style="stop-color:#E6E7E8"/>
			</linearGradient>
			<path class="st38" d="M219.6,157.8c1.4,0,2.5,1.1,2.5,2.4c0,1.4-1,2.5-2.4,2.5c-1.4,0-2.5-1.1-2.5-2.4
				C217.2,159,218.2,157.8,219.6,157.8z"/>
			
				<linearGradient id="SVGID_26_" gradientUnits="userSpaceOnUse" x1="-1319.2446" y1="-655.9822" x2="-1318.7833" y2="-655.9822" gradientTransform="matrix(-0.1852 -8.7864 8.7864 -0.1852 5739.1108 -11550.6855)">
				<stop  offset="0" style="stop-color:#E6E7E8"/>
				<stop  offset="0.308" style="stop-color:#A9ABAD"/>
				<stop  offset="0.7869" style="stop-color:#525355"/>
				<stop  offset="1" style="stop-color:#000000"/>
			</linearGradient>
			<path class="st39" d="M219.6,158.2c1.1,0,2,0.9,2.1,2c0,1.1-0.9,2-2,2.1c-1.1,0-2-0.9-2.1-2C217.6,159.2,218.5,158.3,219.6,158.2
				z"/>
			
				<radialGradient id="SVGID_27_" cx="-1291.7797" cy="-648.5083" r="0.462" gradientTransform="matrix(-7.400000e-02 -3.5109 3.5109 -7.400000e-02 2400.9353 -4423.0161)" gradientUnits="userSpaceOnUse">
				<stop  offset="0" style="stop-color:#D1D3D4"/>
				<stop  offset="0.6496" style="stop-color:#8C8E91"/>
				<stop  offset="1" style="stop-color:#6D6F71"/>
			</radialGradient>
			<path class="st40" d="M219.6,158.7c0.9,0,1.6,0.7,1.7,1.6c0,0.9-0.7,1.6-1.6,1.7c-0.9,0-1.6-0.7-1.7-1.6
				C218,159.4,218.7,158.7,219.6,158.7z"/>
			<path class="st37" d="M220.8,160.1l0,0.3l-2.4,0.1l0-0.3L220.8,160.1z M219.8,159.1l-0.3,0l0,1l0.3,0L219.8,159.1z M219.8,160.4
				l-0.3,0l0,1l0.3,0L219.8,160.4z"/>
		</g>
		<g>
			
				<linearGradient id="SVGID_28_" gradientUnits="userSpaceOnUse" x1="-1330.6204" y1="-661.0198" x2="-1330.1593" y2="-661.0198" gradientTransform="matrix(-0.2257 -10.7047 10.7047 -0.2257 6952.6387 -14143.6074)">
				<stop  offset="0" style="stop-color:#000000"/>
				<stop  offset="0.2131" style="stop-color:#525355"/>
				<stop  offset="0.692" style="stop-color:#A9ABAD"/>
				<stop  offset="1" style="stop-color:#E6E7E8"/>
			</linearGradient>
			<path class="st41" d="M176.8,244.6c1.4,0,2.5,1.1,2.5,2.4c0,1.4-1.1,2.5-2.4,2.5c-1.4,0-2.5-1.1-2.5-2.4
				C174.4,245.7,175.5,244.6,176.8,244.6z"/>
			
				<linearGradient id="SVGID_29_" gradientUnits="userSpaceOnUse" x1="-1329.0112" y1="-661.0549" x2="-1328.5503" y2="-661.0549" gradientTransform="matrix(-0.1852 -8.7864 8.7864 -0.1852 5739.1108 -11550.6855)">
				<stop  offset="0" style="stop-color:#E6E7E8"/>
				<stop  offset="0.308" style="stop-color:#A9ABAD"/>
				<stop  offset="0.7869" style="stop-color:#525355"/>
				<stop  offset="1" style="stop-color:#000000"/>
			</linearGradient>
			<path class="st42" d="M176.9,245c1.1,0,2,0.9,2.1,2c0,1.1-0.9,2-2,2.1c-1.1,0-2-0.9-2.1-2C174.9,245.9,175.7,245,176.9,245z"/>
			
				<radialGradient id="SVGID_30_" cx="-1316.222" cy="-661.2031" r="0.4622" gradientTransform="matrix(-7.400000e-02 -3.5109 3.5109 -7.400000e-02 2400.9353 -4423.0161)" gradientUnits="userSpaceOnUse">
				<stop  offset="0" style="stop-color:#D1D3D4"/>
				<stop  offset="0.6496" style="stop-color:#8C8E91"/>
				<stop  offset="1" style="stop-color:#6D6F71"/>
			</radialGradient>
			<path class="st43" d="M176.9,245.4c0.9,0,1.6,0.7,1.7,1.6c0,0.9-0.7,1.6-1.6,1.7c-0.9,0-1.6-0.7-1.7-1.6
				C175.3,246.2,176,245.4,176.9,245.4z"/>
			<path class="st37" d="M178.1,246.9l0,0.3l-2.4,0.1l0-0.3L178.1,246.9z M177,245.8l-0.3,0l0,1l0.3,0L177,245.8z M177,247.2l-0.3,0
				l0,1l0.3,0L177,247.2z"/>
		</g>
		<g>
			
				<linearGradient id="SVGID_31_" gradientUnits="userSpaceOnUse" x1="-1321.6747" y1="-660.8312" x2="-1321.2134" y2="-660.8312" gradientTransform="matrix(-0.2257 -10.7047 10.7047 -0.2257 6952.6387 -14143.6074)">
				<stop  offset="0" style="stop-color:#000000"/>
				<stop  offset="0.2131" style="stop-color:#525355"/>
				<stop  offset="0.692" style="stop-color:#A9ABAD"/>
				<stop  offset="1" style="stop-color:#E6E7E8"/>
			</linearGradient>
			<path class="st44" d="M176.8,148.7c1.4,0,2.5,1.1,2.5,2.4c0,1.4-1.1,2.5-2.4,2.5c-1.4,0-2.5-1.1-2.5-2.4
				C174.4,149.9,175.5,148.8,176.8,148.7z"/>
			
				<linearGradient id="SVGID_32_" gradientUnits="userSpaceOnUse" x1="-1318.1122" y1="-660.8251" x2="-1317.6512" y2="-660.8251" gradientTransform="matrix(-0.1852 -8.7864 8.7864 -0.1852 5739.1108 -11550.6855)">
				<stop  offset="0" style="stop-color:#E6E7E8"/>
				<stop  offset="0.308" style="stop-color:#A9ABAD"/>
				<stop  offset="0.7869" style="stop-color:#525355"/>
				<stop  offset="1" style="stop-color:#000000"/>
			</linearGradient>
			<path class="st45" d="M176.9,149.2c1.1,0,2,0.9,2.1,2c0,1.1-0.9,2-2,2.1c-1.1,0-2-0.9-2.1-2C174.9,150.1,175.7,149.2,176.9,149.2
				z"/>
			
				<radialGradient id="SVGID_33_" cx="-1288.9459" cy="-660.6282" r="0.4621" gradientTransform="matrix(-7.400000e-02 -3.5109 3.5109 -7.400000e-02 2400.9353 -4423.0161)" gradientUnits="userSpaceOnUse">
				<stop  offset="0" style="stop-color:#D1D3D4"/>
				<stop  offset="0.6496" style="stop-color:#8C8E91"/>
				<stop  offset="1" style="stop-color:#6D6F71"/>
			</radialGradient>
			<path class="st46" d="M176.9,149.6c0.9,0,1.6,0.7,1.7,1.6c0,0.9-0.7,1.6-1.6,1.7c-0.9,0-1.6-0.7-1.7-1.6
				C175.3,150.4,176,149.6,176.9,149.6z"/>
			<path class="st37" d="M178.1,151l0,0.3l-2.4,0.1l0-0.3L178.1,151z M177,150l-0.3,0l0,1l0.3,0L177,150z M177,151.4l-0.3,0l0,1
				l0.3,0L177,151.4z"/>
		</g>
		<g>
			
				<linearGradient id="SVGID_34_" gradientUnits="userSpaceOnUse" x1="-1325.9852" y1="-656.9309" x2="-1325.5239" y2="-656.9309" gradientTransform="matrix(-0.2257 -10.7047 10.7047 -0.2257 6952.6387 -14143.6074)">
				<stop  offset="0" style="stop-color:#000000"/>
				<stop  offset="0.2131" style="stop-color:#525355"/>
				<stop  offset="0.692" style="stop-color:#A9ABAD"/>
				<stop  offset="1" style="stop-color:#E6E7E8"/>
			</linearGradient>
			<path class="st47" d="M219.6,194c1.4,0,2.5,1.1,2.5,2.4c0,1.4-1.1,2.5-2.4,2.5c-1.4,0-2.5-1.1-2.5-2.4
				C217.1,195.2,218.2,194,219.6,194z"/>
			
				<linearGradient id="SVGID_35_" gradientUnits="userSpaceOnUse" x1="-1323.3639" y1="-656.0733" x2="-1322.9026" y2="-656.0733" gradientTransform="matrix(-0.1852 -8.7864 8.7864 -0.1852 5739.1108 -11550.6855)">
				<stop  offset="0" style="stop-color:#E6E7E8"/>
				<stop  offset="0.308" style="stop-color:#A9ABAD"/>
				<stop  offset="0.7869" style="stop-color:#525355"/>
				<stop  offset="1" style="stop-color:#000000"/>
			</linearGradient>
			<path class="st48" d="M219.6,194.5c1.1,0,2,0.9,2.1,2c0,1.1-0.9,2-2,2.1c-1.1,0-2-0.9-2.1-2C217.6,195.4,218.5,194.5,219.6,194.5
				z"/>
			
				<radialGradient id="SVGID_36_" cx="-1302.0884" cy="-648.7365" r="0.462" gradientTransform="matrix(-7.400000e-02 -3.5109 3.5109 -7.400000e-02 2400.9353 -4423.0161)" gradientUnits="userSpaceOnUse">
				<stop  offset="0" style="stop-color:#D1D3D4"/>
				<stop  offset="0.6496" style="stop-color:#8C8E91"/>
				<stop  offset="1" style="stop-color:#6D6F71"/>
			</radialGradient>
			<path class="st49" d="M219.6,194.9c0.9,0,1.6,0.7,1.7,1.6c0,0.9-0.7,1.6-1.6,1.7c-0.9,0-1.6-0.7-1.7-1.6
				C218,195.6,218.7,194.9,219.6,194.9z"/>
			<path class="st37" d="M220.8,196.3l0,0.3l-2.4,0l0-0.3L220.8,196.3z M219.7,195.3l-0.3,0l0,1l0.3,0L219.7,195.3z M219.7,196.6
				l-0.3,0l0,1l0.3,0L219.7,196.6z"/>
		</g>
		<g>
			
				<linearGradient id="SVGID_37_" gradientUnits="userSpaceOnUse" x1="-1328.9861" y1="-658.491" x2="-1328.5249" y2="-658.491" gradientTransform="matrix(-0.2257 -10.7047 10.7047 -0.2257 6952.6387 -14143.6074)">
				<stop  offset="0" style="stop-color:#000000"/>
				<stop  offset="0.2131" style="stop-color:#525355"/>
				<stop  offset="0.692" style="stop-color:#A9ABAD"/>
				<stop  offset="1" style="stop-color:#E6E7E8"/>
			</linearGradient>
			<path class="st50" d="M203.5,226.5c1.4,0,2.5,1.1,2.5,2.4c0,1.4-1.1,2.5-2.4,2.5c-1.4,0-2.5-1.1-2.5-2.4
				C201.1,227.6,202.2,226.5,203.5,226.5z"/>
			
				<linearGradient id="SVGID_38_" gradientUnits="userSpaceOnUse" x1="-1327.0201" y1="-657.974" x2="-1326.5588" y2="-657.974" gradientTransform="matrix(-0.1852 -8.7864 8.7864 -0.1852 5739.1108 -11550.6855)">
				<stop  offset="0" style="stop-color:#E6E7E8"/>
				<stop  offset="0.308" style="stop-color:#A9ABAD"/>
				<stop  offset="0.7869" style="stop-color:#525355"/>
				<stop  offset="1" style="stop-color:#000000"/>
			</linearGradient>
			<path class="st51" d="M203.6,226.9c1.1,0,2,0.9,2.1,2c0,1.1-0.9,2-2,2.1c-1.1,0-2-0.9-2.1-2C201.6,227.9,202.4,227,203.6,226.9z"
				/>
			
				<radialGradient id="SVGID_39_" cx="-1311.2384" cy="-653.4937" r="0.4621" gradientTransform="matrix(-7.400000e-02 -3.5109 3.5109 -7.400000e-02 2400.9353 -4423.0161)" gradientUnits="userSpaceOnUse">
				<stop  offset="0" style="stop-color:#D1D3D4"/>
				<stop  offset="0.6496" style="stop-color:#8C8E91"/>
				<stop  offset="1" style="stop-color:#6D6F71"/>
			</radialGradient>
			<path class="st52" d="M203.6,227.3c0.9,0,1.6,0.7,1.7,1.6c0,0.9-0.7,1.6-1.6,1.7c-0.9,0-1.6-0.7-1.7-1.6
				C202,228.1,202.7,227.4,203.6,227.3z"/>
			<path class="st37" d="M204.8,228.8l0,0.3l-2.4,0l0-0.3L204.8,228.8z M203.7,227.8l-0.3,0l0,1l0.3,0L203.7,227.8z M203.7,229.1
				l-0.3,0l0,1l0.3,0L203.7,229.1z"/>
		</g>
		<g>
			
				<linearGradient id="SVGID_40_" gradientUnits="userSpaceOnUse" x1="-1325.8173" y1="-664.8997" x2="-1325.3558" y2="-664.8997" gradientTransform="matrix(-0.2257 -10.7047 10.7047 -0.2257 6952.6387 -14143.6074)">
				<stop  offset="0" style="stop-color:#000000"/>
				<stop  offset="0.2131" style="stop-color:#525355"/>
				<stop  offset="0.692" style="stop-color:#A9ABAD"/>
				<stop  offset="1" style="stop-color:#E6E7E8"/>
			</linearGradient>
			<path class="st53" d="M134.2,194c1.4,0,2.5,1.1,2.5,2.4c0,1.4-1.1,2.5-2.4,2.5c-1.4,0-2.5-1.1-2.5-2.4
				C131.8,195.2,132.9,194,134.2,194z"/>
			
				<linearGradient id="SVGID_41_" gradientUnits="userSpaceOnUse" x1="-1323.1592" y1="-665.7818" x2="-1322.698" y2="-665.7818" gradientTransform="matrix(-0.1852 -8.7864 8.7864 -0.1852 5739.1108 -11550.6855)">
				<stop  offset="0" style="stop-color:#E6E7E8"/>
				<stop  offset="0.308" style="stop-color:#A9ABAD"/>
				<stop  offset="0.7869" style="stop-color:#525355"/>
				<stop  offset="1" style="stop-color:#000000"/>
			</linearGradient>
			<path class="st54" d="M134.2,194.5c1.1,0,2,0.9,2.1,2c0,1.1-0.9,2-2,2.1c-1.1,0-2-0.9-2.1-2C132.2,195.4,133.1,194.5,134.2,194.5
				z"/>
			
				<radialGradient id="SVGID_42_" cx="-1301.5763" cy="-673.033" r="0.4621" gradientTransform="matrix(-7.400000e-02 -3.5109 3.5109 -7.400000e-02 2400.9353 -4423.0161)" gradientUnits="userSpaceOnUse">
				<stop  offset="0" style="stop-color:#D1D3D4"/>
				<stop  offset="0.6496" style="stop-color:#8C8E91"/>
				<stop  offset="1" style="stop-color:#6D6F71"/>
			</radialGradient>
			<path class="st55" d="M134.3,194.9c0.9,0,1.6,0.7,1.7,1.6c0,0.9-0.7,1.6-1.6,1.7c-0.9,0-1.6-0.7-1.7-1.6
				C132.7,195.6,133.4,194.9,134.3,194.9z"/>
			<path class="st37" d="M135.4,196.3l0,0.3l-2.4,0l0-0.3L135.4,196.3z M134.4,195.3l-0.3,0l0,1l0.3,0L134.4,195.3z M134.4,196.6
				l-0.3,0l0,1l0.3,0L134.4,196.6z"/>
		</g>
		<g>
			
				<linearGradient id="SVGID_43_" gradientUnits="userSpaceOnUse" x1="-1328.8849" y1="-663.2849" x2="-1328.424" y2="-663.2849" gradientTransform="matrix(-0.2257 -10.7047 10.7047 -0.2257 6952.6387 -14143.6074)">
				<stop  offset="0" style="stop-color:#000000"/>
				<stop  offset="0.2131" style="stop-color:#525355"/>
				<stop  offset="0.692" style="stop-color:#A9ABAD"/>
				<stop  offset="1" style="stop-color:#E6E7E8"/>
			</linearGradient>
			<path class="st56" d="M152.2,226.5c1.4,0,2.5,1.1,2.5,2.4c0,1.4-1.1,2.5-2.4,2.5c-1.4,0-2.5-1.1-2.5-2.4
				C149.8,227.6,150.8,226.5,152.2,226.5z"/>
			
				<linearGradient id="SVGID_44_" gradientUnits="userSpaceOnUse" x1="-1326.8971" y1="-663.8146" x2="-1326.4358" y2="-663.8146" gradientTransform="matrix(-0.1852 -8.7864 8.7864 -0.1852 5739.1108 -11550.6855)">
				<stop  offset="0" style="stop-color:#E6E7E8"/>
				<stop  offset="0.308" style="stop-color:#A9ABAD"/>
				<stop  offset="0.7869" style="stop-color:#525355"/>
				<stop  offset="1" style="stop-color:#000000"/>
			</linearGradient>
			<path class="st57" d="M152.2,226.9c1.1,0,2,0.9,2.1,2c0,1.1-0.9,2-2,2.1c-1.1,0-2-0.9-2.1-2C150.2,227.9,151.1,227,152.2,226.9z"
				/>
			
				<radialGradient id="SVGID_45_" cx="-1310.9303" cy="-668.1098" r="0.4621" gradientTransform="matrix(-7.400000e-02 -3.5109 3.5109 -7.400000e-02 2400.9353 -4423.0161)" gradientUnits="userSpaceOnUse">
				<stop  offset="0" style="stop-color:#D1D3D4"/>
				<stop  offset="0.6496" style="stop-color:#8C8E91"/>
				<stop  offset="1" style="stop-color:#6D6F71"/>
			</radialGradient>
			<path class="st58" d="M152.2,227.3c0.9,0,1.6,0.7,1.7,1.6c0,0.9-0.7,1.6-1.6,1.7c-0.9,0-1.6-0.7-1.7-1.6
				C150.6,228.1,151.3,227.4,152.2,227.3z"/>
			<path class="st37" d="M153.4,228.8l0,0.3l-2.4,0l0-0.3L153.4,228.8z M152.4,227.8l-0.3,0l0,1l0.3,0L152.4,227.8z M152.4,229.1
				l-0.3,0l0,1l0.3,0L152.4,229.1z"/>
		</g>
		<linearGradient id="SVGID_46_" gradientUnits="userSpaceOnUse" x1="169.376" y1="203.0962" x2="184.4004" y2="203.0962">
			<stop  offset="0" style="stop-color:#000000"/>
			<stop  offset="1" style="stop-color:#58595B"/>
		</linearGradient>
		<path class="st59" d="M184.4,220.4l-3.9-21.3c2.1-1.3,3.5-3.6,3.5-6.2c0-4-3.3-7.3-7.3-7.3c-4,0-7.3,3.3-7.3,7.3
			c0,2.8,1.6,5.3,4,6.5l-3.5,20.9H184.4z"/>
	</g>
	<defs>
		<filter id="Adobe_OpacityMaskFilter_6_" filterUnits="userSpaceOnUse" x="143.4" y="104.4" width="34.7" height="46.8">
			<feFlood  style="flood-color:white;flood-opacity:1" result="back"/>
			<feBlend  in="SourceGraphic" in2="back" mode="normal"/>
		</filter>
	</defs>
	<mask maskUnits="userSpaceOnUse" x="143.4" y="104.4" width="34.7" height="46.8" id="SVGID_47_">
		<g class="st60">
			<defs>
				<filter id="Adobe_OpacityMaskFilter_7_" filterUnits="userSpaceOnUse" x="143.4" y="104.4" width="34.7" height="46.8">
					<feFlood  style="flood-color:white;flood-opacity:1" result="back"/>
					<feBlend  in="SourceGraphic" in2="back" mode="normal"/>
				</filter>
			</defs>
			<mask maskUnits="userSpaceOnUse" x="143.4" y="104.4" width="34.7" height="46.8" id="SVGID_47_">
				<g class="st61">
				</g>
			</mask>
			<linearGradient id="SVGID_48_" gradientUnits="userSpaceOnUse" x1="143.3623" y1="127.8061" x2="178.0654" y2="127.8061">
				<stop  offset="0" style="stop-color:#FFFFFF"/>
				<stop  offset="0.1353" style="stop-color:#D2D2D2"/>
				<stop  offset="0.3752" style="stop-color:#888888"/>
				<stop  offset="0.5903" style="stop-color:#4E4E4E"/>
				<stop  offset="0.7726" style="stop-color:#242424"/>
				<stop  offset="0.915" style="stop-color:#0A0A0A"/>
				<stop  offset="1" style="stop-color:#000000"/>
			</linearGradient>
			<path class="st62" d="M143.4,151.2l4.6-1.6c0,0-3.8-45,30.1-45C178.1,104.6,143.4,98.7,143.4,151.2z"/>
		</g>
	</mask>
	<linearGradient id="SVGID_49_" gradientUnits="userSpaceOnUse" x1="143.3623" y1="127.8061" x2="178.0654" y2="127.8061">
		<stop  offset="0" style="stop-color:#FFFFFF"/>
		<stop  offset="1" style="stop-color:#FFFFFF"/>
	</linearGradient>
	<path class="st63" d="M143.4,151.2l4.6-1.6c0,0-3.8-45,30.1-45C178.1,104.6,143.4,98.7,143.4,151.2z"/>
	<defs>
		<filter id="Adobe_OpacityMaskFilter_8_" filterUnits="userSpaceOnUse" x="178.5" y="107.8" width="34.6" height="43.4">
			<feFlood  style="flood-color:white;flood-opacity:1" result="back"/>
			<feBlend  in="SourceGraphic" in2="back" mode="normal"/>
		</filter>
	</defs>
	<mask maskUnits="userSpaceOnUse" x="178.5" y="107.8" width="34.6" height="43.4" id="SVGID_50_">
		<g class="st64">
			<defs>
				<filter id="Adobe_OpacityMaskFilter_9_" filterUnits="userSpaceOnUse" x="178.5" y="107.8" width="34.6" height="43.4">
					<feFlood  style="flood-color:white;flood-opacity:1" result="back"/>
					<feBlend  in="SourceGraphic" in2="back" mode="normal"/>
				</filter>
			</defs>
			<mask maskUnits="userSpaceOnUse" x="178.5" y="107.8" width="34.6" height="43.4" id="SVGID_50_">
				<g class="st65">
				</g>
			</mask>
			
				<linearGradient id="SVGID_51_" gradientUnits="userSpaceOnUse" x1="3923.3923" y1="129.5037" x2="3958.9363" y2="129.5037" gradientTransform="matrix(-0.9744 0 0 1 4036.1189 0)">
				<stop  offset="0" style="stop-color:#FFFFFF"/>
				<stop  offset="0.1353" style="stop-color:#D2D2D2"/>
				<stop  offset="0.3752" style="stop-color:#888888"/>
				<stop  offset="0.5903" style="stop-color:#4E4E4E"/>
				<stop  offset="0.7726" style="stop-color:#242424"/>
				<stop  offset="0.915" style="stop-color:#0A0A0A"/>
				<stop  offset="1" style="stop-color:#000000"/>
			</linearGradient>
			<path class="st66" d="M213.2,151.2l-4.5-1.6c0,0,6-39.2-30.1-41.7C178.5,107.9,213.2,103.9,213.2,151.2z"/>
		</g>
	</mask>
	
		<linearGradient id="SVGID_52_" gradientUnits="userSpaceOnUse" x1="3923.3923" y1="129.5037" x2="3958.9363" y2="129.5037" gradientTransform="matrix(-0.9744 0 0 1 4036.1189 0)">
		<stop  offset="0" style="stop-color:#FFFFFF"/>
		<stop  offset="1" style="stop-color:#FFFFFF"/>
	</linearGradient>
	<path class="st67" d="M213.2,151.2l-4.5-1.6c0,0,6-39.2-30.1-41.7C178.5,107.9,213.2,103.9,213.2,151.2z"/>
</g>
</svg>
